<?xml version="1.0" encoding="UTF-8"?>
<svg version="1.1" xmlns="http://www.w3.org/2000/svg" width="790" height="179">
<path d="M0 0 C1.25159912 0.00523682 2.50319824 0.01047363 3.79272461 0.01586914 C4.78942421 0.01799156 4.78942421 0.01799156 5.80625916 0.02015686 C7.93590735 0.02577021 10.06545175 0.03832485 12.19506836 0.05102539 C13.63582205 0.05603868 15.07657739 0.06060188 16.51733398 0.06469727 C20.05577938 0.07574394 23.59416375 0.09301747 27.13256836 0.11352539 C34.92128091 14.57089227 42.09385599 29.27893011 49.13256836 44.11352539 C54.92706097 56.29135841 60.73982578 68.4520319 66.81420898 80.49291992 C69.58216494 85.99500126 72.33117046 91.50659719 75.08435059 97.01608276 C76.76657764 100.38215308 78.44959678 103.74782728 80.13256836 107.11352539 C81.13256836 109.11352539 82.13256836 111.11352539 83.13256836 113.11352539 C88.52649382 102.4378069 93.74900266 91.69603586 98.82006836 80.86352539 C99.51829101 79.37568506 100.21661655 77.88789301 100.91503906 76.40014648 C107.36240018 62.65722623 113.75428362 48.88862181 120.13256836 35.11352539 C122.21894312 30.60836596 124.30624221 26.10363682 126.39492798 21.59954834 C127.23358811 19.79025935 128.07115589 17.98046415 128.90869141 16.1706543 C129.41827393 15.07156738 129.92785645 13.97248047 130.45288086 12.84008789 C130.89905762 11.8766748 131.34523437 10.91326172 131.80493164 9.9206543 C135.82464757 1.42144618 135.82464757 1.42144618 137.13256836 0.11352539 C139.2661001 0.0134925 141.40294378 -0.01728508 143.53881836 -0.01928711 C144.83948242 -0.02057617 146.14014648 -0.02186523 147.48022461 -0.02319336 C148.50140381 -0.02005127 148.50140381 -0.02005127 149.54321289 -0.0168457 C151.62385351 -0.01149701 153.70427825 -0.01679141 155.78491211 -0.02319336 C157.7359082 -0.02125977 157.7359082 -0.02125977 159.72631836 -0.01928711 C160.9296582 -0.01815918 162.13299805 -0.01703125 163.37280273 -0.01586914 C166.13256836 0.11352539 166.13256836 0.11352539 167.13256836 1.11352539 C167.22841834 2.6570567 167.25444906 4.20497647 167.25282288 5.7514801 C167.25488487 7.2554686 167.25488487 7.2554686 167.25698853 8.7898407 C167.25339325 9.89898331 167.24979797 11.00812592 167.24609375 12.15087891 C167.24623978 13.31169983 167.2463858 14.47252075 167.24653625 15.66851807 C167.24583653 19.52650791 167.23804134 23.38445017 167.23022461 27.24243164 C167.22836064 29.90901267 167.22688748 32.57559103 167.22593689 35.24217224 C167.22282384 41.55681419 167.2146108 47.8714389 167.2045874 54.18607324 C167.19342546 61.37338172 167.18791561 68.560691 167.18289196 75.74800599 C167.17242816 90.53652128 167.15482922 105.32502304 167.13256836 120.11352539 C162.87842213 120.13818161 158.62431338 120.15636438 154.37011719 120.16845703 C152.92186763 120.1734964 151.47362319 120.18032792 150.02539062 120.18896484 C147.94782248 120.20104786 145.87032139 120.2067575 143.79272461 120.21118164 C142.54112549 120.21641846 141.28952637 120.22165527 140 120.22705078 C137.13256836 120.11352539 137.13256836 120.11352539 136.13256836 119.11352539 C135.97215643 116.01267318 135.87293434 112.9316496 135.81616211 109.82836914 C135.78499046 108.43214073 135.78499046 108.43214073 135.75318909 107.00770569 C135.68758905 104.02222357 135.62876034 101.03665055 135.57006836 98.05102539 C135.52689306 96.03213563 135.48327911 94.01325519 135.43920898 91.99438477 C135.33189707 87.03419242 135.23065948 82.0739083 135.13256836 77.11352539 C134.67125015 78.03838242 134.20993195 78.96323944 133.7346344 79.91612244 C129.3957654 88.61409532 125.05480676 97.31102243 120.71177769 106.00691891 C118.47882963 110.47804296 116.24663033 114.94953761 114.01611328 119.421875 C111.86520976 123.73451407 109.7123773 128.04618502 107.55817986 132.35717964 C106.73492995 134.00553312 105.91238647 135.65423961 105.09054756 137.30329704 C103.94306908 139.60546857 102.79312933 141.9063942 101.64257812 144.20703125 C101.30019608 144.89539063 100.95781403 145.58375 100.60505676 146.29296875 C98.24662052 150.99947323 98.24662052 150.99947323 97.13256836 152.11352539 C92.72606986 152.5352511 88.30624653 152.57847762 83.88256836 152.67602539 C82.64120117 152.73854492 81.39983398 152.80106445 80.12084961 152.86547852 C71.3256577 153.02169021 71.3256577 153.02169021 68.43041992 150.81787109 C67.031385 148.66369513 66.11400962 146.48908883 65.13256836 144.11352539 C64.26442256 142.4483167 63.39508282 140.7836575 62.50944519 139.12768555 C60.75681841 135.83301294 59.07735673 132.50070433 57.38256836 129.17602539 C56.64197043 127.72962878 55.90099698 126.28342439 55.15966797 124.83740234 C53.61064253 121.81525788 52.06325432 118.79228305 50.5168457 115.76879883 C48.12245756 111.09028474 45.71697243 106.41753665 43.30834961 101.74633789 C42.72435898 100.61375801 42.72435898 100.61375801 42.12857056 99.45829773 C41.35965083 97.96727867 40.59067994 96.47628598 39.82165527 94.98532104 C38.02998812 91.51152712 36.23915094 88.03730655 34.44897461 84.56274414 C33.85544189 83.4112085 33.26190918 82.25967285 32.65039062 81.07324219 C31.46394718 78.7597061 30.29285795 76.44018777 29.13256836 74.11352539 C29.12448151 75.13638641 29.11639465 76.15924744 29.10806274 77.21310425 C29.03068996 86.83695206 28.94297345 96.46065695 28.84504128 106.08431816 C28.79502415 111.032339 28.74869476 115.98033793 28.71069336 120.9284668 C28.67390876 125.70070505 28.62756779 130.47276229 28.57450485 135.24484634 C28.55592449 137.06853191 28.5408301 138.89225632 28.5292244 140.7159996 C28.51242396 143.26389995 28.48340478 145.81138242 28.45141602 148.35913086 C28.44925583 149.11870087 28.44709564 149.87827087 28.44487 150.66085815 C28.36067268 155.88542107 28.36067268 155.88542107 26.13256836 158.11352539 C23.25927734 158.35644531 23.25927734 158.35644531 19.62866211 158.34399414 C18.3312207 158.34206055 17.0337793 158.34012695 15.69702148 158.33813477 C15.02034424 158.33193115 14.34366699 158.32572754 13.64648438 158.31933594 C11.57466365 158.30106591 9.50328939 158.29882634 7.43139648 158.29907227 C-2.72734907 158.25360796 -2.72734907 158.25360796 -3.86743164 157.11352539 C-3.96636813 155.10355079 -3.99375447 153.0900447 -3.99441528 151.07763672 C-3.99723511 149.76509918 -4.00005493 148.45256165 -4.00296021 147.10025024 C-4.0010156 145.63201891 -3.99896742 144.1637877 -3.99682617 142.69555664 C-3.99818015 141.16010496 -3.99996006 139.62465361 -4.00213623 138.08920288 C-4.00671102 133.90750209 -4.00492082 129.72582585 -4.00175714 125.5441246 C-3.99923377 121.17769044 -4.00157102 116.81125846 -4.00314331 112.44482422 C-4.00496507 105.1107546 -4.00255852 97.77669504 -3.99780273 90.44262695 C-3.9923601 81.95102921 -3.99412275 73.45945547 -3.99962914 64.96785831 C-4.00416008 57.6905983 -4.00481091 50.41334553 -4.00219047 43.13608456 C-4.00062759 38.78380375 -4.00043423 34.43153424 -4.00372696 30.07925415 C-4.0066054 25.98847957 -4.0046305 21.89773608 -3.9988327 17.80696487 C-3.99750495 16.30125607 -3.99789947 14.79554467 -4.00009537 13.28983688 C-4.00280626 11.2430302 -3.99881259 9.19621782 -3.99441528 7.14941406 C-3.99384974 5.42714851 -3.99384974 5.42714851 -3.99327278 3.67008972 C-3.81488974 0.04609432 -3.66150077 0.14496363 0 0 Z " fill="currentColor" transform="translate(6.867431640625,8.886474609375)"/>
<path d="M0 0 C6.27734032 0.06991225 11.52496945 0.28279771 16.17919922 4.87792969 C19.11946912 8.64508638 21.37194912 12.73795601 23.45898438 17.02783203 C24.92729105 19.99456778 26.74270339 22.6426721 28.64013672 25.35058594 C29.56632812 26.76017578 29.56632812 26.76017578 30.51123047 28.19824219 C34.52935429 34.20643868 38.75666435 40.07022236 42.93603516 45.96679688 C45.74588393 49.94003337 48.53747299 53.92601098 51.32763672 57.91308594 C51.90215576 58.73405762 52.4766748 59.5550293 53.06860352 60.40087891 C58.38741962 68.00711448 63.68835077 75.62577993 68.98486328 83.24755859 C69.61231445 84.15038574 70.23976563 85.05321289 70.88623047 85.98339844 C71.43077881 86.76730957 71.97532715 87.5512207 72.53637695 88.35888672 C75.54310857 92.67353401 78.56071369 96.9805609 81.57763672 101.28808594 C81.58794418 100.05002701 81.59825165 98.81196808 81.60887146 97.53639221 C81.70642418 85.89618164 81.80914056 74.2560267 81.91697598 62.61590672 C81.97225389 56.63091989 82.02568153 50.64592822 82.07495117 44.66088867 C82.12252308 38.8902082 82.17486301 33.11958926 82.23057747 27.34898186 C82.25103364 25.14207418 82.26974119 22.9351496 82.28671074 20.72821236 C82.3106828 17.64857977 82.34074682 14.56906468 82.37231445 11.48950195 C82.37806992 10.56737411 82.38382538 9.64524628 82.38975525 8.69517517 C82.46358456 2.4021381 82.46358456 2.4021381 83.57763672 1.28808594 C85.71116845 1.18805304 87.84801213 1.15727546 89.98388672 1.15527344 C91.28455078 1.15398438 92.58521484 1.15269531 93.92529297 1.15136719 C94.94647217 1.15450928 94.94647217 1.15450928 95.98828125 1.15771484 C98.06892187 1.16306353 100.14934661 1.15776914 102.22998047 1.15136719 C104.18097656 1.15330078 104.18097656 1.15330078 106.17138672 1.15527344 C107.37472656 1.15640137 108.57806641 1.1575293 109.81787109 1.15869141 C112.57763672 1.28808594 112.57763672 1.28808594 113.57763672 2.28808594 C113.67657321 4.29806054 113.70395955 6.31156663 113.70462036 8.32397461 C113.70744019 9.63651215 113.71026001 10.94904968 113.71316528 12.30136108 C113.71122068 13.76959242 113.70917249 15.23782362 113.70703125 16.70605469 C113.70838523 18.24150636 113.71016514 19.77695772 113.71234131 21.31240845 C113.71691609 25.49410924 113.7151259 29.67578548 113.71196222 33.85748672 C113.70943885 38.22392088 113.71177609 42.59035287 113.71334839 46.95678711 C113.71517015 54.29085672 113.7127636 61.62491628 113.70800781 68.95898438 C113.70256518 77.45058212 113.70432783 85.94215585 113.70983422 94.43375301 C113.71436516 101.71101303 113.71501599 108.9882658 113.71239555 116.26552677 C113.71083267 120.61780758 113.71063931 124.97007709 113.71393204 129.32235718 C113.71681047 133.41313176 113.71483557 137.50387525 113.70903778 141.59464645 C113.70771003 143.10035526 113.70810455 144.60606666 113.71030045 146.11177444 C113.71301134 148.15858113 113.70901767 150.20539351 113.70462036 152.25219727 C113.70405482 153.97446281 113.70405482 153.97446281 113.70347786 155.73152161 C113.57763672 158.28808594 113.57763672 158.28808594 112.57763672 159.28808594 C108.5763012 159.69932099 104.57159832 159.81616544 100.55151367 159.9128418 C98.54625958 159.97462699 96.54307847 160.0947816 94.54052734 160.21582031 C84.98923422 160.42293358 84.98923422 160.42293358 80.99121094 157.20874023 C78.93587321 154.66391197 77.22695262 152.10980386 75.57763672 149.28808594 C74.88154297 148.29679688 74.18544922 147.30550781 73.46826172 146.28417969 C72.92685547 145.43984375 72.38544922 144.59550781 71.82763672 143.72558594 C68.62999517 138.84202832 65.32948825 134.04942462 61.95263672 129.28808594 C60.91356506 127.8219466 59.87450279 126.3558006 58.83544922 124.88964844 C58.30209961 124.1371582 57.76875 123.38466797 57.21923828 122.609375 C49.26048603 111.35538684 41.39359246 100.03584359 33.51513672 88.72558594 C32.61553223 87.43563721 32.61553223 87.43563721 31.69775391 86.11962891 C25.26780931 76.88020402 18.93480463 67.57933135 12.57763672 58.28808594 C12.24763672 79.07808594 11.91763672 99.86808594 11.57763672 121.28808594 C1.34763672 121.28808594 -8.88236328 121.28808594 -19.42236328 121.28808594 C-19.4449107 105.78968464 -19.46334269 90.29129141 -19.47417545 74.79287815 C-19.47933831 67.59718299 -19.48638081 60.40149872 -19.49780273 53.20581055 C-19.50774989 46.93623899 -19.51421678 40.66667532 -19.51645178 34.3970961 C-19.51775883 31.07542973 -19.52136326 27.75379128 -19.52809334 24.43213081 C-19.53529956 20.72988646 -19.5363544 17.02768963 -19.53588867 13.32543945 C-19.53948395 12.21629684 -19.54307922 11.10715424 -19.54678345 9.96440125 C-19.54540878 8.96174225 -19.54403412 7.95908325 -19.5426178 6.92604065 C-19.54353959 6.04941552 -19.54446138 5.17279039 -19.54541111 4.26960087 C-19.17656031 -1.67023065 -4.96647685 0.0771305 0 0 Z " fill="#000000" transform="translate(299.42236328125,7.7119140625)"/>
<path d="M0 0 C0.72030396 -0.00175232 1.44060791 -0.00350464 2.18273926 -0.00531006 C4.57497534 -0.00972835 6.9671381 -0.00679068 9.359375 -0.00341797 C11.01464858 -0.00409101 12.66992207 -0.00506105 14.32519531 -0.00631714 C17.79883767 -0.00779408 21.27245437 -0.00563968 24.74609375 -0.00097656 C29.20869998 0.00472073 33.67124608 0.0014417 38.1338501 -0.00454903 C41.5532273 -0.00815474 44.97259015 -0.00701601 48.39196777 -0.00442123 C50.03788256 -0.00375199 51.68379863 -0.00458029 53.32971191 -0.00690079 C55.62609331 -0.00942749 57.92237599 -0.0055865 60.21875 0 C61.52811523 0.00079559 62.83748047 0.00159119 64.18652344 0.00241089 C67.109375 0.12939453 67.109375 0.12939453 68.109375 1.12939453 C68.20923142 3.10523281 68.24018294 5.08462932 68.2421875 7.06298828 C68.24347656 8.26890625 68.24476563 9.47482422 68.24609375 10.71728516 C68.24222656 11.98765625 68.23835938 13.25802734 68.234375 14.56689453 C68.23824219 15.83339844 68.24210937 17.09990234 68.24609375 18.40478516 C68.24480469 19.61199219 68.24351562 20.81919922 68.2421875 22.06298828 C68.24105957 23.17730225 68.23993164 24.29161621 68.23876953 25.43969727 C68.109375 28.12939453 68.109375 28.12939453 67.109375 30.12939453 C52.589375 30.12939453 38.069375 30.12939453 23.109375 30.12939453 C23.109375 41.34939453 23.109375 52.56939453 23.109375 64.12939453 C27.64558594 64.11779297 32.18179688 64.10619141 36.85546875 64.09423828 C39.72200663 64.08913131 42.58853894 64.08431752 45.45507812 64.08056641 C50.00920775 64.0745788 54.56331735 64.0674807 59.11743164 64.05395508 C62.78730044 64.04312333 66.45714778 64.03711709 70.12703133 64.03451729 C71.53012492 64.03266356 72.93321729 64.02904393 74.3363018 64.02366447 C76.2950718 64.01645034 78.2538632 64.01598645 80.21264648 64.01586914 C81.32961411 64.01364853 82.44658173 64.01142792 83.59739685 64.00914001 C86.109375 64.12939453 86.109375 64.12939453 87.109375 65.12939453 C87.20920558 67.11696481 87.24018253 69.10806973 87.2421875 71.09814453 C87.24347656 72.30857422 87.24476563 73.51900391 87.24609375 74.76611328 C87.24222656 76.04099609 87.23835938 77.31587891 87.234375 78.62939453 C87.23824219 79.90427734 87.24210937 81.17916016 87.24609375 82.49267578 C87.24480469 83.70310547 87.24351562 84.91353516 87.2421875 86.16064453 C87.24105957 87.28019531 87.23993164 88.39974609 87.23876953 89.55322266 C87.109375 92.12939453 87.109375 92.12939453 86.109375 93.12939453 C84.14568347 93.22340123 82.17858301 93.24682834 80.21264648 93.24291992 C78.95141464 93.24284439 77.6901828 93.24276886 76.39073181 93.24269104 C75.00397706 93.23758363 73.61722271 93.23236762 72.23046875 93.22705078 C70.81942291 93.22518654 69.40837643 93.22376267 67.99732971 93.22276306 C64.27696965 93.21893832 60.5566484 93.20910843 56.83630371 93.19805908 C52.37597709 93.18604914 47.91563752 93.18144251 43.45529938 93.17560577 C36.67329756 93.16589663 29.89138097 93.14673982 23.109375 93.12939453 C23.109375 104.34939453 23.109375 115.56939453 23.109375 127.12939453 C37.629375 127.12939453 52.149375 127.12939453 67.109375 127.12939453 C68.23632915 138.39893603 68.23632915 138.39893603 68.2421875 142.44580078 C68.24347656 143.31140625 68.24476563 144.17701172 68.24609375 145.06884766 C68.24222656 145.93445313 68.23835938 146.80005859 68.234375 147.69189453 C68.23824219 148.59230469 68.24210937 149.49271484 68.24609375 150.42041016 C68.24480469 151.27441406 68.24351562 152.12841797 68.2421875 153.00830078 C68.24105957 153.77730713 68.23993164 154.54631348 68.23876953 155.33862305 C68.109375 157.12939453 68.109375 157.12939453 67.109375 158.12939453 C64.81426004 158.22910608 62.51602951 158.2573932 60.21875 158.25878906 C59.49844604 158.26054138 58.77814209 158.2622937 58.03601074 158.26409912 C55.64377466 158.26851742 53.2516119 158.26557974 50.859375 158.26220703 C49.20410142 158.26288008 47.54882793 158.26385011 45.89355469 158.2651062 C42.41991233 158.26658314 38.94629563 158.26442874 35.47265625 158.25976562 C31.01005002 158.25406833 26.54750392 158.25734736 22.0848999 158.26333809 C18.6655227 158.2669438 15.24615985 158.26580507 11.82678223 158.2632103 C10.18086744 158.26254106 8.53495137 158.26336935 6.88903809 158.26568985 C4.59265669 158.26821655 2.29637401 158.26437557 0 158.25878906 C-1.96404785 158.25759567 -1.96404785 158.25759567 -3.96777344 158.25637817 C-6.890625 158.12939453 -6.890625 158.12939453 -7.890625 157.12939453 C-7.98956149 155.11941993 -8.01694783 153.10591384 -8.01760864 151.09350586 C-8.02042847 149.78096832 -8.02324829 148.46843079 -8.02615356 147.11611938 C-8.02420896 145.64788805 -8.02216077 144.17965684 -8.02001953 142.71142578 C-8.02137351 141.1759741 -8.02315342 139.64052275 -8.02532959 138.10507202 C-8.02990437 133.92337123 -8.02811418 129.74169499 -8.0249505 125.55999374 C-8.02242713 121.19355959 -8.02476438 116.8271276 -8.02633667 112.46069336 C-8.02815843 105.12662374 -8.02575188 97.79256418 -8.02099609 90.45849609 C-8.01555346 81.96689835 -8.01731611 73.47532462 -8.0228225 64.98372746 C-8.02735344 57.70646744 -8.02800427 50.42921467 -8.02538383 43.1519537 C-8.02382095 38.79967289 -8.02362759 34.44740338 -8.02692032 30.09512329 C-8.02979875 26.00434871 -8.02782385 21.91360522 -8.02202606 17.82283401 C-8.02069831 16.31712521 -8.02109283 14.81141381 -8.02328873 13.30570602 C-8.02599962 11.25889934 -8.02200595 9.21208696 -8.01760864 7.1652832 C-8.0170431 5.44301765 -8.0170431 5.44301765 -8.01646614 3.68595886 C-7.76586797 -1.4051452 -4.38515772 0.0026645 0 0 Z " fill="#000000" transform="translate(189.890625,8.87060546875)"/>
<path d="M0 0 C1.30066406 -0.00128906 2.60132813 -0.00257812 3.94140625 -0.00390625 C4.96258545 -0.00076416 4.96258545 -0.00076416 6.00439453 0.00244141 C8.08503515 0.0077901 10.16545989 0.0024957 12.24609375 -0.00390625 C14.19708984 -0.00197266 14.19708984 -0.00197266 16.1875 0 C17.39083984 0.00112793 18.59417969 0.00225586 19.83398438 0.00341797 C22.59375 0.1328125 22.59375 0.1328125 23.59375 1.1328125 C23.69268649 3.1427871 23.72007283 5.15629319 23.72073364 7.16870117 C23.72496338 9.13750748 23.72496338 9.13750748 23.72927856 11.14608765 C23.72733396 12.61431898 23.72528577 14.08255019 23.72314453 15.55078125 C23.72449851 17.08623293 23.72627842 18.62168428 23.72845459 20.15713501 C23.73302937 24.3388358 23.73123918 28.52051204 23.7280755 32.70221329 C23.72555213 37.06864745 23.72788938 41.43507943 23.72946167 45.80151367 C23.73128343 53.13558329 23.72887688 60.46964285 23.72412109 67.80371094 C23.71867846 76.29530868 23.72044111 84.78688242 23.7259475 93.27847958 C23.73047844 100.55573959 23.73112927 107.83299236 23.72850883 115.11025333 C23.72694595 119.46253414 23.72675259 123.81480365 23.73004532 128.16708374 C23.73292375 132.25785832 23.73094885 136.34860181 23.72515106 140.43937302 C23.72382331 141.94508182 23.72421783 143.45079322 23.72641373 144.95650101 C23.72912462 147.00330769 23.72513095 149.05012007 23.72073364 151.09692383 C23.7201681 152.81918938 23.7201681 152.81918938 23.71959114 154.57624817 C23.59375 157.1328125 23.59375 157.1328125 22.59375 158.1328125 C20.46021826 158.23284539 18.32337458 158.26362298 16.1875 158.265625 C14.88683594 158.26691406 13.58617187 158.26820313 12.24609375 158.26953125 C11.56530762 158.26743652 10.88452148 158.2653418 10.18310547 158.26318359 C8.10246485 158.2578349 6.02204011 158.2631293 3.94140625 158.26953125 C1.99041016 158.26759766 1.99041016 158.26759766 0 158.265625 C-1.20333984 158.26449707 -2.40667969 158.26336914 -3.64648438 158.26220703 C-6.40625 158.1328125 -6.40625 158.1328125 -7.40625 157.1328125 C-7.40625 147.8928125 -7.40625 138.6528125 -7.40625 129.1328125 C-26.54625 129.1328125 -45.68625 129.1328125 -65.40625 129.1328125 C-65.40625 138.3728125 -65.40625 147.6128125 -65.40625 157.1328125 C-67.26339057 158.98995307 -70.33132049 158.26329931 -72.8125 158.265625 C-74.11316406 158.26691406 -75.41382813 158.26820313 -76.75390625 158.26953125 C-77.43469238 158.26743652 -78.11547852 158.2653418 -78.81689453 158.26318359 C-80.89753515 158.2578349 -82.97795989 158.2631293 -85.05859375 158.26953125 C-87.00958984 158.26759766 -87.00958984 158.26759766 -89 158.265625 C-90.20333984 158.26449707 -91.40667969 158.26336914 -92.64648438 158.26220703 C-95.40625 158.1328125 -95.40625 158.1328125 -96.40625 157.1328125 C-96.50006302 155.29163221 -96.52368954 153.44683609 -96.51977539 151.60327148 C-96.51965454 150.40553101 -96.51953369 149.20779053 -96.51940918 147.97375488 C-96.51173523 146.07055481 -96.51173523 146.07055481 -96.50390625 144.12890625 C-96.50289917 142.97007935 -96.50189209 141.81125244 -96.50085449 140.61730957 C-96.49560327 136.26830055 -96.48164216 131.91930558 -96.46875 127.5703125 C-96.448125 117.8559375 -96.4275 108.1415625 -96.40625 98.1328125 C-67.03625 98.1328125 -37.66625 98.1328125 -7.40625 98.1328125 C-7.41785156 91.14222656 -7.42945313 84.15164062 -7.44140625 76.94921875 C-7.44651288 72.5332022 -7.45132664 68.11718927 -7.45507812 63.70117188 C-7.46106705 56.68448129 -7.46816866 49.66780369 -7.48168945 42.65112305 C-7.4925167 36.99719538 -7.49852649 31.34328163 -7.50112724 25.68934441 C-7.50298179 23.5270764 -7.50660295 21.36480919 -7.51198006 19.20254707 C-7.51918833 16.18522593 -7.52024103 13.16796307 -7.51977539 10.15063477 C-7.52337067 9.2472084 -7.52696594 8.34378204 -7.53067017 7.41297913 C-7.51826487 0.03523647 -7.26717585 0.00681176 0 0 Z " fill="#000000" transform="translate(743.40625,8.8671875)"/>
<path d="M0 0 C1.90673828 0.13134766 1.90673828 0.13134766 4 1 C5.33935547 3.13037109 5.33935547 3.13037109 6.4921875 5.8984375 C7.12785645 7.40422363 7.12785645 7.40422363 7.77636719 8.94042969 C8.18016602 9.95008789 8.58396484 10.95974609 9 12 C9.3393457 12.84208008 9.67869141 13.68416016 10.02832031 14.55175781 C11.08463451 17.23414292 12.10732191 19.9277228 13.125 22.625 C13.99914374 24.91829532 14.87423007 27.21123145 15.75 29.50390625 C15.99356232 30.14232956 16.23712463 30.78075287 16.48806763 31.43852234 C20.32836954 41.4947384 24.23176809 51.52669265 28.125 61.5625 C28.53340118 62.61569427 28.94180237 63.66888855 29.36257935 64.7539978 C34.74310414 78.62897575 40.14003397 92.49744129 45.55563354 106.35876465 C46.5500853 108.90570411 47.54302386 111.45322787 48.53540039 114.00097656 C49.16939303 115.62827101 49.80342541 117.25554998 50.4375 118.8828125 C50.89297462 120.05179077 50.89297462 120.05179077 51.35765076 121.24438477 C53.04849309 125.57849922 54.75318822 129.90672908 56.47425842 134.22892761 C57.67723646 137.25406042 58.86832524 140.28388328 60.0625 143.3125 C60.48668213 144.36236084 60.91086426 145.41222168 61.34790039 146.49389648 C61.71906982 147.44079346 62.09023926 148.38769043 62.47265625 149.36328125 C62.95617554 150.57431519 62.95617554 150.57431519 63.44946289 151.80981445 C64 154 64 154 63 158 C53.1 158 43.2 158 33 158 C30.49783956 152.99567912 28.39625461 148.70034667 26.60571289 143.53076172 C26.18169693 142.31524628 25.75768097 141.09973083 25.32081604 139.84738159 C24.87133593 138.54151575 24.42195179 137.23561686 23.97265625 135.9296875 C23.49759652 134.56201414 23.02203643 133.19451449 22.54600525 131.82717896 C21.2987281 128.24052444 20.0578272 124.65169747 18.81842041 121.06231689 C17.32459142 116.7398018 15.82334734 112.4198581 14.32314968 108.09955025 C13.15293708 104.72911045 11.98375424 101.35832746 10.81813049 97.98629761 C7.92951849 89.63880038 4.9861404 81.31300815 2 73 C-2.56991688 85.07916493 -6.97680875 97.20999109 -11.3125 109.375 C-11.63849182 110.28788788 -11.96448364 111.20077576 -12.300354 112.1413269 C-16.77304015 124.66662788 -21.19939907 137.20573051 -25.47387695 149.80029297 C-25.96247192 151.23139404 -25.96247192 151.23139404 -26.4609375 152.69140625 C-26.73728027 153.50810791 -27.01362305 154.32480957 -27.29833984 155.16625977 C-28 157 -28 157 -29 158 C-31.29151417 158.08790975 -33.58572524 158.10694038 -35.87890625 158.09765625 C-36.90889992 158.09553383 -36.90889992 158.09553383 -37.95970154 158.09336853 C-40.16067801 158.08775479 -42.36155409 158.07520007 -44.5625 158.0625 C-46.05143083 158.05748676 -47.54036324 158.05292355 -49.02929688 158.04882812 C-52.68623075 158.03778093 -56.34310558 158.02050713 -60 158 C-61.13056777 154.6082967 -60.92397906 154.11563101 -59.67089844 150.93896484 C-59.35101456 150.11442307 -59.03113068 149.28988129 -58.70155334 148.44035339 C-58.34113449 147.53964615 -57.98071564 146.6389389 -57.609375 145.7109375 C-57.23795883 144.7609639 -56.86654266 143.8109903 -56.48387146 142.83222961 C-55.24783024 139.67637597 -53.9988158 136.52581794 -52.75 133.375 C-51.8822345 131.165507 -51.0154681 128.95562138 -50.1496582 126.74536133 C-48.34337974 122.13649229 -46.53275551 117.52936507 -44.71923828 112.92333984 C-40.90223993 103.21834448 -37.14115036 93.49176948 -33.37869263 83.76553345 C-31.40901314 78.67589537 -29.43489374 73.58798058 -27.4609375 68.5 C-26.70279273 66.54557554 -25.94465459 64.5911485 -25.18652344 62.63671875 C-24.63877258 61.22471191 -24.63877258 61.22471191 -24.07995605 59.78417969 C-23.0326054 57.08405833 -21.98551231 54.38383723 -20.93847656 51.68359375 C-9.28381772 21.6303686 -9.28381772 21.6303686 -4.1875 8.8125 C-3.8675708 8.00385498 -3.5476416 7.19520996 -3.21801758 6.36206055 C-1.11981134 1.11981134 -1.11981134 1.11981134 0 0 Z " fill="#000000" transform="translate(479,9)"/>
<path d="M0 0 C10.23 0 20.46 0 31 0 C31.02254888 13.02110948 31.04091384 26.0422061 31.05181217 39.06333065 C31.05704153 45.10887817 31.06414014 51.1544117 31.07543945 57.19995117 C31.08626645 63.02894288 31.09227643 68.85792109 31.09487724 74.68692207 C31.09673183 76.9161761 31.10035308 79.14542935 31.10573006 81.37467766 C31.11293799 84.48539734 31.11399105 87.59606049 31.11352539 90.70678711 C31.11712067 91.63826569 31.12071594 92.56974426 31.12442017 93.52944946 C31.11405216 99.88594784 31.11405216 99.88594784 30 101 C27.86646826 101.10003289 25.72962458 101.13081048 23.59375 101.1328125 C22.29308594 101.13410156 20.99242187 101.13539063 19.65234375 101.13671875 C18.97155762 101.13462402 18.29077148 101.1325293 17.58935547 101.13037109 C15.50871485 101.1250224 13.42829011 101.1303168 11.34765625 101.13671875 C9.39666016 101.13478516 9.39666016 101.13478516 7.40625 101.1328125 C6.20291016 101.13168457 4.99957031 101.13055664 3.75976562 101.12939453 C1 101 1 101 0 100 C-0.09533653 96.8949275 -0.12551126 93.81213542 -0.11352539 90.70678711 C-0.11367142 89.73128403 -0.11381744 88.75578094 -0.1139679 87.75071716 C-0.11326833 84.50957047 -0.10547391 81.26848046 -0.09765625 78.02734375 C-0.09579222 75.78674857 -0.09436825 73.54615298 -0.09336853 71.30555725 C-0.08954213 65.3954049 -0.0797108 59.48527695 -0.06866455 53.57513428 C-0.05845306 47.54944183 -0.05387147 41.52374547 -0.04882812 35.49804688 C-0.03808864 23.66535211 -0.02049086 11.8326819 0 0 Z " fill="#000000" transform="translate(580,66)"/>
<path d="M0 0 C0.86445236 0.00202423 1.72890472 0.00404846 2.61955261 0.00613403 C3.52517441 0.00438171 4.4307962 0.00262939 5.36386108 0.00082397 C8.37293892 -0.00359597 11.3819585 -0.00065605 14.39103699 0.00271606 C16.47229524 0.00204307 18.55355342 0.00107308 20.6348114 -0.00018311 C25.00294236 -0.00166027 29.37105292 0.00049508 33.73918152 0.00515747 C39.35193252 0.01085477 44.96463571 0.00757586 50.57738495 0.00158501 C54.87690087 -0.0020201 59.17640537 -0.00088225 63.47592163 0.0017128 C65.5460816 0.00238221 67.61624259 0.00155316 69.68640137 -0.00076675 C72.57430285 -0.00329245 75.46212576 0.00054614 78.35002136 0.00613403 C79.21447372 0.0041098 80.07892609 0.00208557 80.96957397 0 C86.87052462 0.02126619 86.87052462 0.02126619 87.98478699 1.13552856 C88.08450484 3.05011138 88.11559287 4.96835174 88.11759949 6.88552856 C88.11888855 8.05084106 88.12017761 9.21615356 88.12150574 10.41677856 C88.11763855 11.64396606 88.11377136 12.87115356 88.10978699 14.13552856 C88.11365417 15.36271606 88.11752136 16.58990356 88.12150574 17.85427856 C88.12021667 19.01959106 88.11892761 20.18490356 88.11759949 21.38552856 C88.11647156 22.46318481 88.11534363 23.54084106 88.11418152 24.65115356 C87.98478699 27.13552856 87.98478699 27.13552856 86.98478699 28.13552856 C84.09872683 28.23609548 81.23656124 28.27168232 78.35002136 28.2649231 C77.44439957 28.26667542 76.53877777 28.26842773 75.60571289 28.27023315 C72.59663506 28.2746531 69.58761547 28.27171318 66.57853699 28.26834106 C64.49727873 28.26901406 62.41602056 28.26998405 60.33476257 28.27124023 C55.96663161 28.2727174 51.59852105 28.27056205 47.23039246 28.26589966 C41.61764146 28.26020236 36.00493827 28.26348127 30.39218903 28.26947212 C26.0926731 28.27307723 21.7931686 28.27193938 17.49365234 28.26934433 C15.42349237 28.26867492 13.35333138 28.26950397 11.28317261 28.27182388 C8.39527112 28.27434958 5.50744821 28.27051099 2.61955261 28.2649231 C1.75510025 28.26694733 0.89064789 28.26897156 0 28.27105713 C-5.90095064 28.24979094 -5.90095064 28.24979094 -7.01521301 27.13552856 C-7.11493087 25.22094575 -7.1460189 23.30270539 -7.14802551 21.38552856 C-7.14931458 20.22021606 -7.15060364 19.05490356 -7.15193176 17.85427856 C-7.14806458 16.62709106 -7.14419739 15.39990356 -7.14021301 14.13552856 C-7.1440802 12.90834106 -7.14794739 11.68115356 -7.15193176 10.41677856 C-7.1506427 9.25146606 -7.14935364 8.08615356 -7.14802551 6.88552856 C-7.14689758 5.80787231 -7.14576965 4.73021606 -7.14460754 3.61990356 C-6.89508724 -1.17088636 -4.14940016 0.01495385 0 0 Z " fill="#000000" transform="translate(555.0152130126953,8.864471435546875)"/>
<path d="M0 0 C1.30066406 -0.00128906 2.60132813 -0.00257812 3.94140625 -0.00390625 C4.96258545 -0.00076416 4.96258545 -0.00076416 6.00439453 0.00244141 C8.08503515 0.0077901 10.16545989 0.0024957 12.24609375 -0.00390625 C14.19708984 -0.00197266 14.19708984 -0.00197266 16.1875 0 C17.39083984 0.00112793 18.59417969 0.00225586 19.83398438 0.00341797 C22.59375 0.1328125 22.59375 0.1328125 23.59375 1.1328125 C23.6879674 3.24962567 23.71117761 5.36962008 23.70727539 7.48852539 C23.70742142 8.15191422 23.70756744 8.81530304 23.7077179 9.49879456 C23.70701881 11.70105206 23.69922665 13.90322595 23.69140625 16.10546875 C23.68954206 17.62861586 23.68811816 19.15176357 23.68711853 20.6749115 C23.68329346 24.69118901 23.67346328 28.70743058 23.66241455 32.72369385 C23.6504055 37.53860989 23.64579814 42.35353794 23.63996124 47.16846466 C23.63025151 54.48993897 23.61109491 61.81133435 23.59375 69.1328125 C13.36375 69.1328125 3.13375 69.1328125 -7.40625 69.1328125 C-7.44635881 52.20243843 -7.44635881 52.20243843 -7.45507812 45.00976562 C-7.46106601 40.09349494 -7.46816484 35.17724281 -7.48168945 30.26098633 C-7.49252025 26.29934422 -7.49852724 22.33772198 -7.50112724 18.37606621 C-7.50298114 16.86132939 -7.5066011 15.34659371 -7.51198006 13.83186531 C-7.51919307 11.71739437 -7.52024083 9.60300656 -7.51977539 7.48852539 C-7.521996 6.28273331 -7.52421661 5.07694122 -7.52650452 3.83460999 C-7.30022074 -1.24938155 -4.46054959 0.00418102 0 0 Z " fill="#000000" transform="translate(654.40625,8.8671875)"/>
</svg>
