<?xml version="1.0" encoding="UTF-8"?>
<svg version="1.1" xmlns="http://www.w3.org/2000/svg" width="500" height="500">
<path d="M0 0 C19.01330064 13.92974447 25.88085654 41.95054877 32.85546875 63.359375 C33.84546875 63.029375 34.83546875 62.699375 35.85546875 62.359375 C36.89307064 60.0637956 37.73927904 57.86196878 38.54296875 55.484375 C39.06583022 54.02229631 39.5920202 52.56140475 40.12109375 51.1015625 C40.40017578 50.3290918 40.67925781 49.55662109 40.96679688 48.76074219 C54.54740607 12.06324986 54.54740607 12.06324986 70.10546875 3.859375 C78.5535674 0.20793747 86.9233758 0.58214142 95.56640625 3.4453125 C104.74368264 7.1099587 110.80548097 14.59181904 114.85546875 23.359375 C121.91660014 44.11089569 120.69247043 66.27007928 118.35546875 87.734375 C115.4851931 114.28860157 117.99962651 134.02010112 128.1640625 158.7578125 C135.19735443 175.88364283 142.53638566 196.54199855 135.95703125 215.01953125 C130.77373558 226.02943943 123.38439686 232.35880818 112.15234375 236.59765625 C95.58184321 242.09297531 74.27744956 239.17380295 58.79296875 231.671875 C52.37467839 227.78229453 48.20619318 223.32440478 45.765625 216.16015625 C36.81079496 179.30917363 57.39545256 137.4557194 69.9491272 103.55102539 C70.18634491 102.91028076 70.42356262 102.26953613 70.66796875 101.609375 C70.9026889 100.97539795 71.13740906 100.3414209 71.37924194 99.68823242 C78.17520567 81.42282176 78.17520567 81.42282176 81.85546875 62.359375 C77.46328995 64.55173589 75.78879933 66.59005766 73.66796875 70.984375 C73.38244141 71.57412109 73.09691406 72.16386719 72.80273438 72.77148438 C69.36228453 80.07972415 66.51582527 87.64802777 63.5546875 95.15869141 C51.72064005 125.00989571 51.72064005 125.00989571 40.03125 131.546875 C35.94329523 133.07343621 32.12375834 133.10920966 27.85546875 132.359375 C17.12407815 127.42293533 11.75349675 116.40540633 7.77050781 105.90722656 C4.84292822 97.75562019 2.32279304 89.46263323 -0.25732422 81.19628906 C-1.41692019 77.48839001 -2.59529662 73.79244052 -3.83203125 70.109375 C-4.16589844 69.09359375 -4.49976562 68.0778125 -4.84375 67.03125 C-6.44739484 63.73727682 -8.35076668 61.71111537 -11.14453125 59.359375 C-12.13453125 59.359375 -13.12453125 59.359375 -14.14453125 59.359375 C-13.74251564 66.44818772 -12.40300201 72.54350689 -9.89453125 79.171875 C-9.37705322 80.57034668 -9.37705322 80.57034668 -8.84912109 81.99707031 C-5.56928572 90.64634776 -1.75976347 99.04708893 2.0741272 107.46084595 C34.03781197 177.69184059 34.03781197 177.69184059 24.1171875 211.0390625 C22.38628025 215.59408157 20.26576713 218.90788944 16.85546875 222.359375 C16.34242187 222.90980469 15.829375 223.46023438 15.30078125 224.02734375 C3.55262143 235.41013018 -14.5409018 233.83317774 -29.6484375 233.63671875 C-41.5985953 233.33829886 -52.87617907 231.53616536 -62.14453125 223.359375 C-63.00111328 222.62460937 -63.00111328 222.62460937 -63.875 221.875 C-68.87155034 216.89078683 -71.13751842 210.23484189 -72.14453125 203.359375 C-72.02713714 194.91194914 -70.63332977 186.85611424 -68.64453125 178.671875 C-68.26010864 177.04100952 -68.26010864 177.04100952 -67.86791992 175.37719727 C-66.29195064 168.79509973 -64.60130493 162.24855267 -62.8515625 155.7109375 C-62.55528458 154.60237648 -62.55528458 154.60237648 -62.25302124 153.47142029 C-61.28336869 149.85196048 -60.30329739 146.23584618 -59.3046875 142.62426758 C-54.27133881 124.26357628 -52.61735106 106.83474459 -52.14453125 87.796875 C-51.81221326 74.56501605 -51.36044812 61.44267652 -49.73046875 48.296875 C-49.61131104 47.33337631 -49.49215332 46.36987762 -49.36938477 45.37718201 C-47.29472199 29.89017519 -43.06254862 14.23486202 -31.14453125 3.359375 C-22.10553036 -2.80427535 -10.02069765 -6.03307982 0 0 Z " fill="#DC322C" transform="translate(108.14453125,116.640625)"/>
<path d="M0 0 C12.11678251 9.12697467 20.94540813 21.11170635 23.56640625 36.27734375 C25.36277987 53.08761898 20.27617944 68.24985336 9.9375 81.5 C6.83663369 85.22366187 3.44544475 88.59853965 0 92 C0.63389648 92.28609131 1.26779297 92.57218262 1.92089844 92.86694336 C13.8217289 98.28024338 25.03817052 103.40709742 35 112 C35.71671875 112.55816406 36.4334375 113.11632812 37.171875 113.69140625 C50.72690264 124.59322111 57.4140805 139.83531889 60.6875 156.5 C62.21676563 173.62777501 58.26672029 188.87352581 47.93359375 202.78125 C37.43454886 215.2523874 22.85089167 221.84698705 6.8125 223.68041992 C-0.71494414 224.31079287 -8.07219398 223.46023856 -15.5390625 222.5078125 C-21.01408579 221.83455382 -26.07497884 221.38257199 -31.3125 223.375 C-45.37780605 227.88530331 -66.41930856 230.28646847 -80 224 C-87.35899748 220.17748188 -90.38291248 214.71647693 -93 207 C-97.26293207 191.22443612 -93.01616367 172.98693512 -89.87277222 157.38690186 C-84.91767597 132.75858702 -84.28715666 112.80917944 -89 88 C-90.05885638 82.39186024 -91.11010153 76.78232853 -92.15744019 71.17202759 C-92.6099034 68.7677206 -93.07284662 66.36562789 -93.53735352 63.96362305 C-103.29930036 12.75546936 -103.29930036 12.75546936 -92 -4 C-87.35607286 -8.41739411 -83.91303804 -9.1393891 -77.625 -9.125 C-75.94277344 -9.12886719 -75.94277344 -9.12886719 -74.2265625 -9.1328125 C-71.34759009 -9.01430758 -68.80227747 -8.62486462 -66 -8 C-61.52538984 -7.6347257 -57.99842612 -8.24384053 -53.75 -9.5 C-35.2919113 -14.32821094 -15.76216193 -10.58008129 0 0 Z M-45 20 C-49.66313208 26.99469811 -48.1795528 37.03105271 -47 45 C-45.54001796 51.71751298 -43.79340694 57.95923194 -37.9921875 62.1171875 C-34.88796629 63.49278357 -32.47739231 63.62948012 -29.15234375 63.015625 C-24.94666702 61.03109515 -22.92121674 57.08258556 -21 53 C-18.88320918 46.08170804 -19.80714252 39.39639341 -23 33 C-27.16401236 27.03636851 -31.93423997 22.18980166 -39 20 C-42.2553656 19.41223366 -42.2553656 19.41223366 -45 20 Z M-33.625 114.0625 C-39.25954513 121.03154267 -38.59911778 129.40035549 -38 138 C-36.91784078 144.80101527 -35.41663209 150.64650655 -31 156 C-30.4225 156.78375 -29.845 157.5675 -29.25 158.375 C-26.50238782 160.35938657 -24.32052784 160.57482693 -20.9609375 160.375 C-17.66641372 159.74497155 -16.19363239 158.50700845 -14 156 C-9.87186707 148.47614481 -10.37555531 141.65335281 -12.625 133.625 C-15.46735563 124.99785016 -19.21911963 117.07448719 -27 112 C-31.03217821 111.58811897 -31.03217821 111.58811897 -33.625 114.0625 Z " fill="#DC322C" transform="translate(402,127)"/>
<path d="M0 0 C4.81197763 4.57470063 7.6011825 10.59396024 8.18359375 17.1796875 C8.34647069 25.70358065 6.61136057 32.03003878 0.69140625 38.33984375 C-5.20073274 43.65353074 -10.93103142 44.54812731 -18.76953125 44.2578125 C-27.05343193 43.30197781 -32.34812288 40.38453945 -37.64453125 33.98046875 C-41.8073926 27.62973993 -41.70332769 21.26430744 -41.01953125 13.8828125 C-39.29385911 6.60877679 -35.02546681 2.11591166 -29.01953125 -2.1171875 C-19.74388262 -7.09436481 -8.34780832 -6.11680114 0 0 Z " fill="#DB322C" transform="translate(294.01953125,317.1171875)"/>
<path d="M0 0 C0.66 0 1.32 0 2 0 C2 0.66 2 1.32 2 2 C7.61 2.33 13.22 2.66 19 3 C19 2.34 19 1.68 19 1 C22.3 1 25.6 1 29 1 C25.53428383 3.31047745 22.59473453 3.75871203 18.5625 4.25 C17.82402832 4.34007324 17.08555664 4.43014648 16.32470703 4.52294922 C8.58652936 5.29821759 1.14483248 4.48458542 -6.5390625 3.5078125 C-12.01408579 2.83455382 -17.07497884 2.38257199 -22.3125 4.375 C-34.28469528 8.2199516 -47.54124222 8.36054283 -60 8 C-60 7.67 -60 7.34 -60 7 C-56.50056733 6.66052975 -53.00037948 6.32955227 -49.5 6 C-48.51773437 5.90460938 -47.53546875 5.80921875 -46.5234375 5.7109375 C-40.98601633 5.19411152 -35.56118702 4.89407263 -30 5 C-30 4.01 -30 3.02 -30 2 C-28.35 1.67 -26.7 1.34 -25 1 C-25 1.66 -25 2.32 -25 3 C-23.80310547 2.50693359 -23.80310547 2.50693359 -22.58203125 2.00390625 C-18.16212269 0.76517506 -14.24398725 0.81691934 -9.6875 0.9375 C-6.78758433 0.9988138 -3.90142591 1.02074564 -1 1 C-0.67 0.67 -0.34 0.34 0 0 Z " fill="#BC322C" transform="translate(393,346)"/>
<path d="M0 0 C0.66 0 1.32 0 2 0 C2.66 1.32 3.32 2.64 4 4 C5.65 3.67 7.3 3.34 9 3 C9 3.66 9 4.32 9 5 C9.66 5 10.32 5 11 5 C11 5.99 11 6.98 11 8 C13.58577227 7.93986576 16.1658681 7.85282878 18.75 7.75 C19.84441406 7.72873047 19.84441406 7.72873047 20.9609375 7.70703125 C24.62575849 7.54044848 26.63051072 7.30064035 29.515625 4.953125 C30.00546875 4.30859375 30.4953125 3.6640625 31 3 C32.32 3.66 33.64 4.32 35 5 C26.56163463 9.84424679 19.98378827 11.70652994 10.05859375 9.28125 C5.10713061 7.45120103 1.83996633 5.64721764 -1 1 C-0.67 0.67 -0.34 0.34 0 0 Z " fill="#C2352F" transform="translate(259,351)"/>
<path d="M0 0 C0.98120464 3.05263664 0.98120464 4.94736336 0 8 C0.66 8.33 1.32 8.66 2 9 C2.33 9.99 2.66 10.98 3 12 C2.360625 12.103125 1.72125 12.20625 1.0625 12.3125 C0.0415625 12.6528125 0.0415625 12.6528125 -1 13 C-2.17245774 16.51737321 -2.13266285 19.3575132 -2.125 23.0625 C-2.12757813 24.31160156 -2.13015625 25.56070313 -2.1328125 26.84765625 C-2.21948276 29.90200713 -2.21948276 29.90200713 -1 32 C-0.92934383 34.04055005 -0.91578024 36.08334257 -0.9375 38.125 C-0.94652344 39.22070312 -0.95554687 40.31640625 -0.96484375 41.4453125 C-0.97644531 42.28835937 -0.98804688 43.13140625 -1 44 C-1.66 44 -2.32 44 -3 44 C-4.54031348 29.72459468 -6.2546247 13.40276721 0 0 Z " fill="#BE332C" transform="translate(308,126)"/>
<path d="M0 0 C0.33 0 0.66 0 1 0 C1.144375 1.134375 1.28875 2.26875 1.4375 3.4375 C1.61171478 6.80777201 1.61171478 6.80777201 3 8 C3.23701239 10.85877909 3.42219182 13.69883297 3.5625 16.5625 C3.60568359 17.36880859 3.64886719 18.17511719 3.69335938 19.00585938 C3.79975262 21.00368805 3.90040888 23.0018207 4 25 C4.66 25 5.32 25 6 25 C6.36590746 26.72672034 6.71722195 28.45653655 7.0625 30.1875 C7.25972656 31.15042969 7.45695312 32.11335938 7.66015625 33.10546875 C8.00423947 36.03610862 7.74164697 38.16307068 7 41 C6.67 41 6.34 41 6 41 C4.97389614 35.80594366 3.95898089 30.60987267 2.9543457 25.41162109 C2.61105644 23.64377057 2.26472405 21.87650814 1.9152832 20.10986328 C1.41335523 17.56952227 0.92243078 15.02726324 0.43359375 12.484375 C0.27531601 11.69569031 0.11703827 10.90700562 -0.04603577 10.09442139 C-0.7500307 6.37682659 -1.09655136 3.61907461 0 0 Z " fill="#BD362E" transform="translate(308,179)"/>
<path d="M0 0 C0.88365234 0.00451172 1.76730469 0.00902344 2.67773438 0.01367188 C4.84768559 0.02540134 7.01760172 0.04333505 9.1875 0.0625 C9.1875 0.3925 9.1875 0.7225 9.1875 1.0625 C8.12789063 1.11148438 7.06828125 1.16046875 5.9765625 1.2109375 C4.58851503 1.28596709 3.20049549 1.36151485 1.8125 1.4375 C0.76449219 1.48390625 0.76449219 1.48390625 -0.3046875 1.53125 C-4.51435827 1.65749498 -4.51435827 1.65749498 -7.8125 4.0625 C-10.08984375 4.22265625 -10.08984375 4.22265625 -12.75 4.125 C-15.90063597 4.01827743 -17.78251351 4.0525045 -20.8125 5.0625 C-22.20689664 5.12915376 -23.60419875 5.14788199 -25 5.125 C-26.8871875 5.0940625 -26.8871875 5.0940625 -28.8125 5.0625 C-28.8125 4.7325 -28.8125 4.4025 -28.8125 4.0625 C-26.58342605 3.58290222 -24.35423703 3.1038392 -22.125 2.625 C-20.88363281 2.35816406 -19.64226562 2.09132813 -18.36328125 1.81640625 C-17.19152344 1.56761719 -16.01976562 1.31882812 -14.8125 1.0625 C-13.65234375 0.76859375 -13.65234375 0.76859375 -12.46875 0.46875 C-8.3208206 -0.1656392 -4.18860608 -0.04060543 0 0 Z " fill="#BA342B" transform="translate(364.8125,115.9375)"/>
<path d="M0 0 C2.83857246 2.83857246 3.8151351 6.3059166 5.1875 10 C5.47302734 10.73734375 5.75855469 11.4746875 6.05273438 12.234375 C6.76499755 14.13374348 7.38924683 16.06560087 8 18 C7.67 18.66 7.34 19.32 7 20 C6.566875 19.195625 6.13375 18.39125 5.6875 17.5625 C4.19525998 14.72153646 4.19525998 14.72153646 1 14 C0.04738513 9.23692563 -0.08333357 4.8333472 0 0 Z " fill="#C8312C" transform="translate(234,272)"/>
<path d="M0 0 C0.268125 0.639375 0.53625 1.27875 0.8125 1.9375 C1.88667752 4.33131686 1.88667752 4.33131686 5 5 C4.01 5.495 4.01 5.495 3 6 C2.67 6.66 2.34 7.32 2 8 C1.67 8 1.34 8 1 8 C0.34 9.98 -0.32 11.96 -1 14 C-1.66 14 -2.32 14 -3 14 C-3.33 15.98 -3.66 17.96 -4 20 C-5.08062462 16.75812614 -4.96405231 16.10290139 -4.00390625 12.98828125 C-3.77509766 12.23095703 -3.54628906 11.47363281 -3.31054688 10.69335938 C-3.06369141 9.90767578 -2.81683594 9.12199219 -2.5625 8.3125 C-2.19801758 7.11657227 -2.19801758 7.11657227 -1.82617188 5.89648438 C-1.22520262 3.92860466 -0.6136095 1.96397505 0 0 Z " fill="#C6332A" transform="translate(163,263)"/>
<path d="M0 0 C0.33 0 0.66 0 1 0 C0.2893401 21.7106599 0.2893401 21.7106599 -6 28 C-6.25086347 24.48791142 -6.21312487 22.40771715 -4.5625 19.25 C-2.76059881 15.50204552 -2.54702802 12.51057388 -2.25 8.4140625 C-1.9403412 5.42391974 -1.10094697 2.78906566 0 0 Z " fill="#B82C28" transform="translate(425,168)"/>
<path d="M0 0 C0.66 0 1.32 0 2 0 C4.439623 10.23770365 5.40278241 19.4829038 5 30 C4.67 30 4.34 30 4 30 C3.95101562 29.08476562 3.90203125 28.16953125 3.8515625 27.2265625 C3.77679688 26.03804688 3.70203125 24.84953125 3.625 23.625 C3.55539063 22.44164062 3.48578125 21.25828125 3.4140625 20.0390625 C3.29782654 16.89437681 3.29782654 16.89437681 1 15 C1.66 15 2.32 15 3 15 C2.34 12.03 1.68 9.06 1 6 C0.67 6 0.34 6 0 6 C0 4.02 0 2.04 0 0 Z " fill="#B9332D" transform="translate(241,294)"/>
<path d="M0 0 C0.33 0 0.66 0 1 0 C3.23583195 10.0973056 1.63932784 19.11823089 -1 29 C-1.33 29 -1.66 29 -2 29 C-2.33 26.36 -2.66 23.72 -3 21 C-2.34 20.67 -1.68 20.34 -1 20 C0.07626143 13.32717912 0.11348901 6.7462913 0 0 Z " fill="#B9372E" transform="translate(461,282)"/>
<path d="M0 0 C0.33 0 0.66 0 1 0 C1.05447047 1.41623216 1.09300508 2.83308191 1.125 4.25 C1.14820313 5.03890625 1.17140625 5.8278125 1.1953125 6.640625 C0.98052892 9.2352106 0.20627206 10.7214861 -1 13 C-1.2165625 14.7634375 -1.2165625 14.7634375 -1.4375 16.5625 C-1.99704477 19.98194024 -2.29123433 20.99786885 -5 23 C-4.354523 15.09290669 -2.13002861 7.60866033 0 0 Z " fill="#B83B32" transform="translate(51,251)"/>
<path d="M0 0 C0.33 0.66 0.66 1.32 1 2 C1.99 2.33 2.98 2.66 4 3 C0.35421595 6.32875935 -4.21084385 8.0219329 -9 9 C-11.28125 8.578125 -11.28125 8.578125 -13 8 C-8.77050005 5.58314288 -5.87664009 4.65166856 -1 5 C-0.67 3.35 -0.34 1.7 0 0 Z " fill="#B92E28" transform="translate(116,340)"/>
<path d="M0 0 C0.99 0 1.98 0 3 0 C3.86355778 1.95421035 4.71559934 3.91351347 5.5625 5.875 C6.03816406 6.96554688 6.51382813 8.05609375 7.00390625 9.1796875 C7.33261719 10.11039063 7.66132813 11.04109375 8 12 C7.67 12.66 7.34 13.32 7 14 C6.34 12.35 5.68 10.7 5 9 C3.68 9.33 2.36 9.66 1 10 C1 7.16032769 1.40267181 4.76264289 2 2 C1.34 2 0.68 2 0 2 C0 1.34 0 0.68 0 0 Z " fill="#C6302A" transform="translate(123,140)"/>
<path d="M0 0 C0.33 0 0.66 0 1 0 C1.25 6.625 1.25 6.625 -1 10 C-2.9375 10.8125 -2.9375 10.8125 -5 11 C-5.99 10.34 -6.98 9.68 -8 9 C-8.1875 6.375 -8.1875 6.375 -8 4 C-7.34 5.32 -6.68 6.64 -6 8 C-5.01 7.67 -4.02 7.34 -3 7 C-1.28432339 3.49705129 -1.28432339 3.49705129 0 0 Z " fill="#BD342F" transform="translate(147,172)"/>
<path d="M0 0 C1.10886989 3.32660966 1.43514747 5.51882027 1 9 C-1.38892501 10.88599343 -2.91851558 12 -6 12 C-4.68139111 7.38486888 -2.78644563 3.90102388 0 0 Z " fill="#C73431" transform="translate(165,132)"/>
<path d="M0 0 C0.98484375 0.00902344 1.9696875 0.01804687 2.984375 0.02734375 C4.10585937 0.04474609 4.10585937 0.04474609 5.25 0.0625 C5.25 0.3925 5.25 0.7225 5.25 1.0625 C3.6 1.3925 1.95 1.7225 0.25 2.0625 C0.25 2.7225 0.25 3.3825 0.25 4.0625 C-1.6875 4.625 -1.6875 4.625 -3.75 5.0625 C-4.75 4.0625 -4.75 4.0625 -5.75 2.0625 C-7.73 2.3925 -9.71 2.7225 -11.75 3.0625 C-8.30305607 -0.38444393 -4.70567242 -0.05601991 0 0 Z " fill="#C02B28" transform="translate(95.75,113.9375)"/>
<path d="M0 0 C0.33 0.99 0.66 1.98 1 3 C1.99 3 2.98 3 4 3 C4.33 2.34 4.66 1.68 5 1 C5.125 7.625 5.125 7.625 4 11 C3.34 11 2.68 11 2 11 C0.57741188 7.17679443 -0.24042276 4.08718695 0 0 Z " fill="#C7352D" transform="translate(153,324)"/>
<path d="M0 0 C3.82669043 3.42388092 5.72278474 6.00724943 7 11 C6.34 11 5.68 11 5 11 C5 10.01 5 9.02 5 8 C2.03 7.505 2.03 7.505 -1 7 C-0.67 6.34 -0.34 5.68 0 5 C-0.33 4.67 -0.66 4.34 -1 4 C-1 1 -1 1 0 0 Z " fill="#C7302A" transform="translate(215,129)"/>
<path d="M0 0 C0 0.66 0 1.32 0 2 C-1.0725 2.28875 -2.145 2.5775 -3.25 2.875 C-6.82906295 3.81727334 -6.82906295 3.81727334 -9.25 5.1875 C-11 6 -11 6 -14 5 C-14 4.34 -14 3.68 -14 3 C-9.48492091 0.94769132 -4.97200442 0 0 0 Z " fill="#BB2E27" transform="translate(279,312)"/>
<path d="M0 0 C1.32 0.66 2.64 1.32 4 2 C0.89973691 5.27742098 -1.97098894 7.93104837 -6 10 C-6.66 10 -7.32 10 -8 10 C-8 9.34 -8 8.68 -8 8 C-7.01 8 -6.02 8 -5 8 C-5 7.01 -5 6.02 -5 5 C-3.68 4.67 -2.36 4.34 -1 4 C-0.67 2.68 -0.34 1.36 0 0 Z " fill="#C33430" transform="translate(440,333)"/>
<path d="M0 0 C1.65 0.33 3.3 0.66 5 1 C1.19958418 3.91365213 -0.80791607 5.13131548 -5.625 5.0625 C-6.85089844 5.04896484 -6.85089844 5.04896484 -8.1015625 5.03515625 C-9.04128906 5.01775391 -9.04128906 5.01775391 -10 5 C-9.67 4.34 -9.34 3.68 -9 3 C-6.03 3 -3.06 3 0 3 C0 2.01 0 1.02 0 0 Z " fill="#C23531" transform="translate(147,244)"/>
<path d="M0 0 C2.34211663 2.89399469 3.86862171 5.67155428 5.25 9.125 C5.60578125 9.99382812 5.9615625 10.86265625 6.328125 11.7578125 C7 14 7 14 6 16 C1.5467553 11.10143083 0 6.60452917 0 0 Z " fill="#BB2C29" transform="translate(107,219)"/>
<path d="M0 0 C0.99 0 1.98 0 3 0 C1.26017005 5.81261371 -0.8110489 10.83169994 -4 16 C-5 13 -5 13 -4.1875 11 C-3.17840313 9.30046843 -2.09638343 7.64457514 -1 6 C-0.9603287 4.33380554 -0.95615553 2.66608987 -1 1 C-0.67 0.67 -0.34 0.34 0 0 Z " fill="#BA2E2B" transform="translate(165,219)"/>
<path d="M0 0 C1.65 0 3.3 0 5 0 C4.814375 0.9075 4.62875 1.815 4.4375 2.75 C3.81587232 5.85285194 3.81587232 5.85285194 4.5625 8.25 C4.7790625 9.11625 4.7790625 9.11625 5 10 C4.34 10.66 3.68 11.32 3 12 C2.01 8.04 1.02 4.08 0 0 Z " fill="#C62F2A" transform="translate(105,186)"/>
<path d="M0 0 C0.33 0 0.66 0 1 0 C1.144375 1.134375 1.28875 2.26875 1.4375 3.4375 C1.61171478 6.80777201 1.61171478 6.80777201 3 8 C3.04092937 10.33297433 3.04241723 12.66705225 3 15 C2.01 15.495 2.01 15.495 1 16 C0.63818911 13.70952777 0.28576776 11.41757055 -0.0625 9.125 C-0.25972656 7.84882813 -0.45695312 6.57265625 -0.66015625 5.2578125 C-1 2 -1 2 0 0 Z " fill="#C12927" transform="translate(308,179)"/>
<path d="M0 0 C2.31 0.33 4.62 0.66 7 1 C7.33 1.99 7.66 2.98 8 4 C7.071875 3.979375 6.14375 3.95875 5.1875 3.9375 C1.97713989 3.84230396 1.97713989 3.84230396 -1 5 C-0.67 3.35 -0.34 1.7 0 0 Z " fill="#C8342E" transform="translate(369,236)"/>
<path d="M0 0 C0.66 0 1.32 0 2 0 C2.33 0.66 2.66 1.32 3 2 C3.99 2.33 4.98 2.66 6 3 C8 6 8 6 8 9 C3.33845958 7.50164772 2.13389249 4.11536409 0 0 Z " fill="#C7312F" transform="translate(156,336)"/>
<path d="M0 0 C0.33 0 0.66 0 1 0 C1.20086443 3.71599191 1.1519437 4.77208445 -1 8 C-1.33 9.03125 -1.66 10.0625 -2 11.125 C-3 14 -3 14 -5 15 C-4.54705135 13.24859857 -4.08741252 11.49892656 -3.625 9.75 C-3.36976562 8.77546875 -3.11453125 7.8009375 -2.8515625 6.796875 C-2.10401491 4.34162697 -1.22876183 2.24382595 0 0 Z " fill="#B73A35" transform="translate(67,133)"/>
<path d="M0 0 C2.18975773 3.28463659 2.99806563 6.20696275 4 10 C3.38125 9.505 2.7625 9.01 2.125 8.5 C0.16119096 6.80777227 0.16119096 6.80777227 -2 7 C-1.34 4.69 -0.68 2.38 0 0 Z " fill="#C32E26" transform="translate(115,237)"/>
<path d="M0 0 C1.03125 0.804375 2.0625 1.60875 3.125 2.4375 C6.37127696 4.77799296 8.94902383 5.70358711 13 6 C13 6.33 13 6.66 13 7 C11.741875 7.020625 10.48375 7.04125 9.1875 7.0625 C8.47980469 7.07410156 7.77210938 7.08570313 7.04296875 7.09765625 C5 7 5 7 2 6 C0.8125 2.9375 0.8125 2.9375 0 0 Z " fill="#B82F2C" transform="translate(359,184)"/>
<path d="M0 0 C0.33 0 0.66 0 1 0 C1.1799928 5.21979128 0.97094808 9.07262981 -1 14 C-1.33 14 -1.66 14 -2 14 C-2 12.35 -2 10.7 -2 9 C-2.66 8.67 -3.32 8.34 -4 8 C-2.68 7.67 -1.36 7.34 0 7 C0 4.69 0 2.38 0 0 Z " fill="#BD302B" transform="translate(301,334)"/>
<path d="M0 0 C0.99 0 1.98 0 3 0 C1.6302836 3.99500618 -0.25722422 6.80009492 -3 10 C-3.33 8.35 -3.66 6.7 -4 5 C-3.01 4.67 -2.02 4.34 -1 4 C-0.26676204 1.98491642 -0.26676204 1.98491642 0 0 Z " fill="#C7332F" transform="translate(416,196)"/>
<path d="M0 0 C4.2026393 2.63886654 7.56638098 5.36440339 11 9 C7.66864109 8.40300869 5.78724333 7.27987719 3.25 5.0625 C2.63640625 4.53785156 2.0228125 4.01320312 1.390625 3.47265625 C0 2 0 2 0 0 Z " fill="#B7362F" transform="translate(431,235)"/>
<path d="M0 0 C2.475 0.99 2.475 0.99 5 2 C3.35 3.65 1.7 5.3 0 7 C-1.04449911 3.86650268 -0.93423645 3.01031744 0 0 Z " fill="#CC332C" transform="translate(403,210)"/>
<path d="M0 0 C2.09970981 3.9171057 2.99334562 7.68576696 4 12 C2 11.0625 2 11.0625 0 9 C-0.36475845 5.97465051 -0.22893297 3.03336186 0 0 Z " fill="#BA3837" transform="translate(355,172)"/>
<path d="M0 0 C0.66 0 1.32 0 2 0 C1.8125 2.375 1.8125 2.375 1 5 C-1.5625 6.3125 -1.5625 6.3125 -4 7 C-2.92598892 4.08482708 -2.22189824 2.22189824 0 0 Z " fill="#C92F2C" transform="translate(313,120)"/>
<path d="M0 0 C1.65 0 3.3 0 5 0 C5 1.32 5 2.64 5 4 C4.34 4 3.68 4 3 4 C3 4.66 3 5.32 3 6 C2.34 6 1.68 6 1 6 C0.67 4.02 0.34 2.04 0 0 Z " fill="#CD352E" transform="translate(281,313)"/>
<path d="M0 0 C0.66 0.33 1.32 0.66 2 1 C1.01 1.33 0.02 1.66 -1 2 C-1.33 2.99 -1.66 3.98 -2 5 C-5.0625 6.1875 -5.0625 6.1875 -8 7 C-5.42215154 4.35247996 -3.08351902 2.05567935 0 0 Z " fill="#BC342A" transform="translate(82,117)"/>
<path d="M0 0 C6.64615385 1.47692308 6.64615385 1.47692308 8.4375 4.125 C8.7159375 5.053125 8.7159375 5.053125 9 6 C5.06326356 4.68775452 2.77280706 3.08089673 0 0 Z " fill="#C13430" transform="translate(46,339)"/>
<path d="M0 0 C2.1519437 3.22791555 2.20086443 4.28400809 2 8 C0.02 6.35 -1.96 4.7 -4 3 C-2.68 2.67 -1.36 2.34 0 2 C0 1.34 0 0.68 0 0 Z " fill="#C13431" transform="translate(101,173)"/>
<path d="M0 0 C4 4.75 4 4.75 4 7 C2.68 7 1.36 7 0 7 C0 4.69 0 2.38 0 0 Z " fill="#C1302D" transform="translate(295,319)"/>
<path d="M0 0 C0.33 0 0.66 0 1 0 C1 2.31 1 4.62 1 7 C-0.32 7.33 -1.64 7.66 -3 8 C-1.125 2.25 -1.125 2.25 0 0 Z " fill="#C33429" transform="translate(158,144)"/>
</svg>
